<svg viewBox="117 1818.123 101.9 94.177" xmlns="http://www.w3.org/2000/svg"><g fill="#2b2e34" transform="translate(117 1817)"><path d="m36.3 47.6a11.46 11.46 0 0 0 8.8 4.2h18.6a3.585 3.585 0 0 0 3.6-3.6 2.768 2.768 0 0 0 -.3-1.3h.3a5.378 5.378 0 0 0 5.4-5.4 6.537 6.537 0 0 0 -.4-2.1h1.2a5.389 5.389 0 0 0 2.8-10h1.6a5.4 5.4 0 1 0 0-10.8h-27a1.6 1.6 0 0 1 -1.4-.8 1.81 1.81 0 0 1 -.1-1.6 29.817 29.817 0 0 0 3-8.7 5.385 5.385 0 1 0 -10.6-1.9 23.006 23.006 0 0 1 -6.2 11.6 5.547 5.547 0 0 0 -.6.8 4.909 4.909 0 0 1 -4.2 2.4h-12.8v25.4h14.5a4.945 4.945 0 0 1 3.8 1.8z"/><path d="m0 73h101.9v6.4h-101.9z"/><circle cx="9.5" cy="86" r="2.7"/><circle cx="16.4" cy="92.6" r="2.7"/><circle cx="23.3" cy="86" r="2.7"/><circle cx="44" cy="92.6" r="2.7"/><circle cx="37.1" cy="86" r="2.7"/><circle cx="30.2" cy="92.6" r="2.7"/><circle cx="51" cy="86" r="2.7"/><circle cx="71.7" cy="92.6" r="2.7"/><circle cx="64.8" cy="86" r="2.7"/><circle cx="57.8" cy="92.6" r="2.7"/><circle cx="78.5" cy="86" r="2.7"/><circle cx="92.3" cy="86" r="2.7"/><circle cx="85.4" cy="92.6" r="2.7"/><circle cx="46.7" cy="59.8" r="2.7"/><circle cx="60.5" cy="59.8" r="2.7"/><circle cx="53.6" cy="66.3" r="2.7"/></g></svg>